<svg width="806" height="917" xmlns="http://www.w3.org/2000/svg" xmlns:xlink="http://www.w3.org/1999/xlink" overflow="hidden"><defs><clipPath id="clip0"><rect x="453" y="212" width="806" height="917"/></clipPath><clipPath id="clip1"><rect x="453" y="212" width="800" height="799"/></clipPath><clipPath id="clip2"><rect x="453" y="212" width="800" height="799"/></clipPath><clipPath id="clip3"><rect x="453" y="212" width="800" height="799"/></clipPath><clipPath id="clip4"><rect x="819" y="688" width="441" height="441"/></clipPath><clipPath id="clip5"><rect x="819" y="688" width="441" height="441"/></clipPath><clipPath id="clip6"><rect x="819" y="688" width="441" height="441"/></clipPath><clipPath id="clip7"><rect x="693" y="577" width="270" height="269"/></clipPath><clipPath id="clip8"><rect x="693" y="577" width="270" height="269"/></clipPath><clipPath id="clip9"><rect x="693" y="577" width="270" height="269"/></clipPath></defs><g clip-path="url(#clip0)" transform="translate(-453 -212)"><g clip-path="url(#clip1)"><g clip-path="url(#clip2)"><g clip-path="url(#clip3)"><path d="M568.455 692.466 590.927 337.91 614.231 646.69 568.455 692.466ZM516.853 715.771 183.936 715.771 213.067 249.687 249.687 249.687 249.687 316.271C249.687 325.426 257.178 332.917 266.333 332.917 275.488 332.917 282.979 325.426 282.979 316.271L282.979 249.687 449.437 249.687 449.437 316.271C449.437 325.426 456.928 332.917 466.083 332.917 475.238 332.917 482.729 325.426 482.729 316.271L482.729 249.687 545.983 249.687 516.853 715.771ZM282.979 166.458C282.979 128.173 308.78 96.5458 343.736 86.5583 331.252 104.869 324.594 126.508 324.594 149.812L324.594 199.75 282.979 199.75 282.979 166.458ZM387.848 85.726C423.636 94.8812 449.437 127.341 449.437 166.458L449.437 199.75 357.885 199.75 357.885 149.812C357.885 124.011 369.537 101.54 387.848 85.726ZM441.115 66.5833C486.891 66.5833 524.344 104.036 524.344 149.812L524.344 199.75 482.729 199.75 482.729 166.458C482.729 124.844 461.09 88.2229 427.798 67.4156 431.959 67.4156 436.953 66.5833 441.115 66.5833ZM632.542 231.377C631.709 213.899 616.728 199.75 599.25 199.75L563.461 199.75C580.107 199.75 594.256 212.234 596.753 228.048 594.256 212.234 580.94 199.75 563.461 199.75L557.635 199.75 557.635 149.812C557.635 85.726 505.201 33.2917 441.115 33.2917 418.643 33.2917 397.835 39.95 380.357 50.7698 375.363 49.9375 371.202 49.9375 366.208 49.9375 302.122 49.9375 249.687 102.372 249.687 166.458L249.687 199.75 198.085 199.75C180.607 199.75 165.626 213.067 164.794 231.377L133.999 730.752C133.167 749.895 148.148 765.708 167.291 765.708L533.499 765.708 552.642 765.708C561.797 765.708 570.952 761.547 576.778 754.888L655.846 676.653C662.504 669.995 666.665 660.007 665.833 650.852L632.542 231.377Z" fill="#C5E0B4" transform="matrix(1.00125 0 0 1 453 212)"/></g></g></g><g clip-path="url(#clip4)"><g clip-path="url(#clip5)"><g clip-path="url(#clip6)"><path d="M208.068 91.4584C137.188 91.4584 80.0261 148.62 80.0261 219.5 80.0261 241.907 85.9709 262.943 96.0313 281.235 105.634 271.174 116.152 261.114 127.584 250.139 156.394 223.159 190.233 195.721 218.586 175.6 220.415 174.228 222.244 173.314 224.53 173.314 229.561 173.314 233.676 177.429 233.676 182.46 233.676 185.661 232.304 187.947 230.018 189.776L230.018 189.776C189.319 219.043 135.358 264.315 98.7751 305.471 98.7751 305.471 93.7449 310.959 91.4584 313.702L91.4584 313.702C70.8803 337.939 57.1615 359.889 57.1615 375.437L84.599 375.437C84.599 365.376 100.604 343.426 124.841 317.361 147.248 336.567 176.057 347.999 208.068 347.999 230.932 347.999 252.882 342.054 271.631 331.079L271.631 331.079C369.492 276.662 381.839 176.515 381.839 64.0209 381.839 64.0209 275.29 93.2876 208.068 91.4584Z" stroke="#000000" stroke-width="16.8846" fill="#C5E0B4" transform="matrix(1 0 0 1.00228 820 689)"/></g></g></g><g clip-path="url(#clip7)"><g clip-path="url(#clip8)"><g clip-path="url(#clip9)"><path d="M42.5076 197.351C44.6217 201.425 48.6677 204.14 53.2395 204.552L103.677 204.552 103.677 226.969 53.2395 226.969C40.4626 226.736 28.7743 219.723 22.5568 208.559 16.6005 197.784 17.1186 184.592 23.9018 174.317L53.0434 123.88 33.8211 112.672 80.728 100.118 93.2813 147.025 72.8541 135.284 43.6004 186.002C41.1037 189.268 40.6801 193.669 42.5076 197.351Z" fill="#C5E0B4" transform="matrix(1 0 0 1 693 577)"/><path d="M82.157 81.6526 105.61 37.8561C111.763 26.7875 123.462 19.955 136.125 20.0349 148.437 20.2874 159.594 27.3444 165.099 38.3605L194.24 88.798 213.463 77.5896 200.909 124.637 154.114 112.083 174.514 100.286 145.12 49.5408C143.523 45.751 139.921 43.1899 135.817 42.9279 131.495 43.142 127.584 45.5526 125.449 49.3166L101.968 93.1132Z" fill="#C5E0B4" transform="matrix(1 0 0 1 693 577)"/><path d="M245.434 210.801C239.308 221.08 228.116 227.26 216.153 226.969L156.917 226.969 156.917 249.385 122.479 214.359 156.917 180.286 156.917 204.552 215.396 204.552C219.599 204.832 223.604 202.732 225.764 199.116 227.856 195.289 227.727 190.633 225.427 186.927L199.788 143.214 219.599 131.698 245.266 175.382C246.713 177.928 247.851 180.637 248.657 183.452L249.133 185.302C251.252 193.96 249.926 203.102 245.434 210.801Z" fill="#C5E0B4" transform="matrix(1 0 0 1 693 577)"/></g></g></g></g></svg>